<svg width="12" height="7" viewBox="0 0 12 7" fill="none" xmlns="http://www.w3.org/2000/svg">
<path d="M10.7083 0.552054C10.5132 0.358043 10.2492 0.249146 9.97396 0.249146C9.69876 0.249146 9.43475 0.358043 9.23958 0.552054L5.5 4.23955L1.8125 0.552054C1.61733 0.358043 1.35332 0.249146 1.07813 0.249146C0.802932 0.249146 0.53892 0.358043 0.343751 0.552054C0.246117 0.648891 0.168623 0.7641 0.115738 0.891037C0.0628545 1.01797 0.0356274 1.15413 0.0356274 1.29164C0.0356274 1.42915 0.0628545 1.5653 0.115738 1.69224C0.168623 1.81918 0.246117 1.93438 0.343751 2.03122L4.76042 6.44789C4.85725 6.54552 4.97246 6.62301 5.0994 6.6759C5.22634 6.72878 5.36249 6.75601 5.5 6.75601C5.63751 6.75601 5.77366 6.72878 5.9006 6.6759C6.02754 6.62301 6.14275 6.54552 6.23958 6.44789L10.7083 2.03122C10.806 1.93438 10.8835 1.81918 10.9363 1.69224C10.9892 1.5653 11.0165 1.42915 11.0165 1.29164C11.0165 1.15413 10.9892 1.01797 10.9363 0.891037C10.8835 0.7641 10.806 0.648891 10.7083 0.552054Z" fill="#152131"/>
</svg>
