<svg width="25" height="26" viewBox="0 0 25 26" fill="none" xmlns="http://www.w3.org/2000/svg">
<path d="M9.55205 18.2084C9.35804 18.0132 9.24915 17.7492 9.24915 17.474C9.24915 17.1988 9.35804 16.9348 9.55205 16.7396L13.2396 13L9.55205 9.31252C9.35804 9.11735 9.24915 8.85334 9.24915 8.57814C9.24915 8.30295 9.35804 8.03894 9.55205 7.84377C9.64889 7.74613 9.7641 7.66864 9.89104 7.61576C10.018 7.56287 10.1541 7.53564 10.2916 7.53564C10.4291 7.53564 10.5653 7.56287 10.6922 7.61576C10.8192 7.66864 10.9344 7.74613 11.0312 7.84377L15.4479 12.2604C15.5455 12.3573 15.623 12.4725 15.6759 12.5994C15.7288 12.7264 15.756 12.8625 15.756 13C15.756 13.1375 15.7288 13.2737 15.6759 13.4006C15.623 13.5276 15.5455 13.6428 15.4479 13.7396L11.0312 18.2084C10.9344 18.306 10.8192 18.3835 10.6922 18.4364C10.5653 18.4892 10.4291 18.5165 10.2916 18.5165C10.1541 18.5165 10.018 18.4892 9.89104 18.4364C9.7641 18.3835 9.64889 18.306 9.55205 18.2084Z" fill="#152131"/>
</svg>
