<svg width="25" height="25" viewBox="0 0 25 25" fill="none" xmlns="http://www.w3.org/2000/svg">
<path d="M17.7083 15.4479C17.5132 15.642 17.2492 15.7509 16.974 15.7509C16.6988 15.7509 16.4348 15.642 16.2396 15.4479L12.5 11.7604L8.8125 15.4479C8.61733 15.642 8.35332 15.7509 8.07813 15.7509C7.80293 15.7509 7.53892 15.642 7.34375 15.4479C7.24612 15.3511 7.16862 15.2359 7.11574 15.109C7.06285 14.982 7.03563 14.8459 7.03563 14.7084C7.03563 14.5708 7.06285 14.4347 7.11574 14.3078C7.16862 14.1808 7.24612 14.0656 7.34375 13.9688L11.7604 9.55211C11.8573 9.45448 11.9725 9.37699 12.0994 9.3241C12.2263 9.27122 12.3625 9.24399 12.5 9.24399C12.6375 9.24399 12.7737 9.27122 12.9006 9.3241C13.0275 9.37699 13.1427 9.45448 13.2396 9.55211L17.7083 13.9688C17.806 14.0656 17.8835 14.1808 17.9363 14.3078C17.9892 14.4347 18.0165 14.5708 18.0165 14.7084C18.0165 14.8459 17.9892 14.982 17.9363 15.109C17.8835 15.2359 17.806 15.3511 17.7083 15.4479Z" fill="#152131"/>
</svg>
