<svg width="25" height="26" viewBox="0 0 25 26" fill="none" xmlns="http://www.w3.org/2000/svg">
<path d="M15.4479 18.2084C15.6419 18.0132 15.7508 17.7492 15.7508 17.474C15.7508 17.1988 15.6419 16.9348 15.4479 16.7396L11.7604 13L15.4479 9.31252C15.6419 9.11735 15.7508 8.85334 15.7508 8.57814C15.7508 8.30295 15.6419 8.03894 15.4479 7.84377C15.3511 7.74613 15.2359 7.66864 15.1089 7.61576C14.982 7.56287 14.8458 7.53564 14.7083 7.53564C14.5708 7.53564 14.4347 7.56287 14.3077 7.61576C14.1808 7.66864 14.0656 7.74613 13.9688 7.84377L9.55208 12.2604C9.45445 12.3573 9.37696 12.4725 9.32407 12.5994C9.27119 12.7264 9.24396 12.8625 9.24396 13C9.24396 13.1375 9.27119 13.2737 9.32407 13.4006C9.37696 13.5276 9.45445 13.6428 9.55208 13.7396L13.9687 18.2084C14.0656 18.306 14.1808 18.3835 14.3077 18.4364C14.4347 18.4892 14.5708 18.5165 14.7083 18.5165C14.8458 18.5165 14.982 18.4892 15.1089 18.4364C15.2359 18.3835 15.3511 18.306 15.4479 18.2084Z" fill="#152131"/>
</svg>
