<svg width="9" height="7" viewBox="0 0 9 7" fill="none" xmlns="http://www.w3.org/2000/svg">
<path d="M8.66664 1.14174C8.51051 0.986532 8.2993 0.899414 8.07914 0.899414C7.85899 0.899414 7.64778 0.986532 7.49164 1.14174L4.49998 4.09174L1.54998 1.14174C1.39384 0.986532 1.18263 0.899414 0.962478 0.899414C0.742323 0.899414 0.531113 0.986532 0.374978 1.14174C0.296871 1.21921 0.234875 1.31138 0.192568 1.41293C0.150261 1.51448 0.128479 1.6234 0.128479 1.73341C0.128479 1.84342 0.150261 1.95234 0.192568 2.05389C0.234875 2.15544 0.296871 2.24761 0.374978 2.32507L3.90831 5.85841C3.98578 5.93651 4.07795 5.99851 4.1795 6.04082C4.28105 6.08312 4.38997 6.10491 4.49998 6.10491C4.60999 6.10491 4.71891 6.08312 4.82046 6.04082C4.92201 5.99851 5.01417 5.93651 5.09164 5.85841L8.66664 2.32507C8.74475 2.24761 8.80675 2.15544 8.84905 2.05389C8.89136 1.95234 8.91314 1.84342 8.91314 1.73341C8.91314 1.6234 8.89136 1.51448 8.84905 1.41293C8.80675 1.31138 8.74475 1.21921 8.66664 1.14174Z" fill="#152131"/>
</svg>
