<svg width="12" height="7" viewBox="0 0 12 7" fill="none" xmlns="http://www.w3.org/2000/svg">
<path d="M10.7083 6.44795C10.5132 6.64196 10.2492 6.75085 9.97396 6.75085C9.69876 6.75085 9.43475 6.64196 9.23958 6.44795L5.5 2.76045L1.8125 6.44795C1.61733 6.64196 1.35332 6.75085 1.07813 6.75085C0.802932 6.75085 0.53892 6.64196 0.343751 6.44795C0.246117 6.35111 0.168623 6.2359 0.115738 6.10896C0.0628545 5.98203 0.0356274 5.84587 0.0356274 5.70836C0.0356274 5.57085 0.0628545 5.4347 0.115738 5.30776C0.168623 5.18082 0.246117 5.06562 0.343751 4.96878L4.76042 0.552113C4.85725 0.454479 4.97246 0.376985 5.0994 0.324101C5.22634 0.271217 5.36249 0.243989 5.5 0.243989C5.63751 0.243989 5.77366 0.271217 5.9006 0.324101C6.02754 0.376985 6.14275 0.454479 6.23958 0.552113L10.7083 4.96878C10.806 5.06562 10.8835 5.18082 10.9363 5.30776C10.9892 5.4347 11.0165 5.57085 11.0165 5.70836C11.0165 5.84587 10.9892 5.98203 10.9363 6.10896C10.8835 6.2359 10.806 6.35111 10.7083 6.44795Z" fill="#152131"/>
</svg>
