<svg width="20" height="20" viewBox="0 0 20 20" fill="none" xmlns="http://www.w3.org/2000/svg">
<path d="M14.1666 7.64166C14.0105 7.48646 13.7993 7.39934 13.5791 7.39934C13.359 7.39934 13.1478 7.48646 12.9916 7.64166L9.99998 10.5917L7.04998 7.64166C6.89384 7.48646 6.68263 7.39934 6.46248 7.39934C6.24232 7.39934 6.03111 7.48646 5.87498 7.64166C5.79687 7.71913 5.73488 7.8113 5.69257 7.91285C5.65026 8.0144 5.62848 8.12332 5.62848 8.23333C5.62848 8.34334 5.65026 8.45226 5.69257 8.55381C5.73488 8.65536 5.79687 8.74753 5.87498 8.825L9.40831 12.3583C9.48578 12.4364 9.57795 12.4984 9.6795 12.5407C9.78105 12.583 9.88997 12.6048 9.99998 12.6048C10.11 12.6048 10.2189 12.583 10.3205 12.5407C10.422 12.4984 10.5142 12.4364 10.5916 12.3583L14.1666 8.825C14.2448 8.74753 14.3067 8.65536 14.3491 8.55381C14.3914 8.45226 14.4131 8.34334 14.4131 8.23333C14.4131 8.12332 14.3914 8.0144 14.3491 7.91285C14.3067 7.8113 14.2448 7.71913 14.1666 7.64166Z" fill="white"/>
</svg>
