<svg width="20" height="21" viewBox="0 0 20 21" fill="none" xmlns="http://www.w3.org/2000/svg">
<path d="M11.175 10.4999L16.425 5.25824C16.5819 5.10132 16.6701 4.8885 16.6701 4.66658C16.6701 4.44466 16.5819 4.23183 16.425 4.07491C16.2681 3.91799 16.0552 3.82983 15.8333 3.82983C15.6114 3.82983 15.3986 3.91799 15.2417 4.07491L9.99999 9.32491L4.75832 4.07491C4.6014 3.91799 4.38857 3.82983 4.16666 3.82983C3.94474 3.82983 3.73191 3.91799 3.57499 4.07491C3.41807 4.23183 3.32991 4.44466 3.32991 4.66658C3.32991 4.8885 3.41807 5.10132 3.57499 5.25824L8.82499 10.4999L3.57499 15.7416C3.49688 15.819 3.43489 15.9112 3.39258 16.0128C3.35027 16.1143 3.32849 16.2232 3.32849 16.3332C3.32849 16.4433 3.35027 16.5522 3.39258 16.6537C3.43489 16.7553 3.49688 16.8474 3.57499 16.9249C3.65246 17.003 3.74463 17.065 3.84618 17.1073C3.94773 17.1496 4.05665 17.1714 4.16666 17.1714C4.27667 17.1714 4.38559 17.1496 4.48714 17.1073C4.58869 17.065 4.68085 17.003 4.75832 16.9249L9.99999 11.6749L15.2417 16.9249C15.3191 17.003 15.4113 17.065 15.5128 17.1073C15.6144 17.1496 15.7233 17.1714 15.8333 17.1714C15.9433 17.1714 16.0523 17.1496 16.1538 17.1073C16.2554 17.065 16.3475 17.003 16.425 16.9249C16.5031 16.8474 16.5651 16.7553 16.6074 16.6537C16.6497 16.5522 16.6715 16.4433 16.6715 16.3332C16.6715 16.2232 16.6497 16.1143 16.6074 16.0128C16.5651 15.9112 16.5031 15.819 16.425 15.7416L11.175 10.4999Z" fill="white"/>
</svg>
