<svg width="13" height="13" viewBox="0 0 13 13" fill="none" xmlns="http://www.w3.org/2000/svg">
<path d="M12.3125 5.30003C12.1369 5.08918 11.9171 4.91945 11.6687 4.80282C11.4204 4.68619 11.1494 4.6255 10.875 4.62503H8.025L8.375 3.73128C8.52058 3.33995 8.56907 2.91916 8.51629 2.50498C8.46351 2.0908 8.31106 1.69561 8.07199 1.3533C7.83293 1.01099 7.51439 0.731776 7.14371 0.539617C6.77303 0.347459 6.36127 0.248088 5.94375 0.250028C5.82352 0.250279 5.70592 0.2852 5.60504 0.350605C5.50417 0.416009 5.42429 0.509122 5.375 0.618778L3.59375 4.62503H2.125C1.62772 4.62503 1.15081 4.82257 0.799175 5.1742C0.447544 5.52583 0.25 6.00275 0.25 6.50003V10.875C0.25 11.3723 0.447544 11.8492 0.799175 12.2009C1.15081 12.5525 1.62772 12.75 2.125 12.75H10.0812C10.5199 12.7499 10.9446 12.596 11.2815 12.315C11.6183 12.0341 11.846 11.644 11.925 11.2125L12.7188 6.83753C12.7678 6.56714 12.7569 6.28927 12.6867 6.02358C12.6165 5.75788 12.4887 5.51087 12.3125 5.30003ZM3.375 11.5H2.125C1.95924 11.5 1.80027 11.4342 1.68306 11.317C1.56585 11.1998 1.5 11.0408 1.5 10.875V6.50003C1.5 6.33427 1.56585 6.1753 1.68306 6.05809C1.80027 5.94088 1.95924 5.87503 2.125 5.87503H3.375V11.5ZM11.5 6.61253L10.7062 10.9875C10.6796 11.1331 10.6022 11.2646 10.4877 11.3584C10.3733 11.4523 10.2292 11.5024 10.0812 11.5H4.625V5.38128L6.325 1.55628C6.49999 1.60729 6.6625 1.69403 6.80229 1.81102C6.94207 1.928 7.05608 2.07269 7.13712 2.23596C7.21817 2.39923 7.26449 2.57752 7.27316 2.75959C7.28183 2.94166 7.25266 3.12355 7.1875 3.29378L6.85625 4.18753C6.78567 4.37644 6.76184 4.57962 6.7868 4.77973C6.81176 4.97985 6.88476 5.17095 6.99958 5.33674C7.11441 5.50253 7.26763 5.63807 7.44619 5.7318C7.62475 5.82554 7.82333 5.87468 8.025 5.87503H10.875C10.9668 5.87488 11.0575 5.89496 11.1407 5.93385C11.2239 5.97274 11.2975 6.02948 11.3563 6.10003C11.4165 6.16961 11.4606 6.25162 11.4854 6.34021C11.5103 6.4288 11.5152 6.52179 11.5 6.61253Z" fill="#152131"/>
</svg>
