<svg width="25" height="26" viewBox="0 0 25 26" fill="none" xmlns="http://www.w3.org/2000/svg">
<path d="M12.5 10.9165C12.088 10.9165 11.6852 11.0387 11.3426 11.2676C11 11.4965 10.7329 11.8219 10.5753 12.2026C10.4176 12.5833 10.3763 13.0021 10.4567 13.4063C10.5371 13.8104 10.7355 14.1816 11.0269 14.473C11.3182 14.7643 11.6894 14.9628 12.0936 15.0431C12.4977 15.1235 12.9166 15.0823 13.2973 14.9246C13.6779 14.7669 14.0033 14.4999 14.2322 14.1573C14.4611 13.8147 14.5833 13.4119 14.5833 12.9998C14.5833 12.4473 14.3638 11.9174 13.9731 11.5267C13.5824 11.136 13.0525 10.9165 12.5 10.9165ZM5.20833 10.9165C4.79629 10.9165 4.3935 11.0387 4.0509 11.2676C3.70829 11.4965 3.44127 11.8219 3.28359 12.2026C3.1259 12.5833 3.08465 13.0021 3.16503 13.4063C3.24542 13.8104 3.44384 14.1816 3.73519 14.473C4.02655 14.7643 4.39777 14.9628 4.8019 15.0431C5.20602 15.1235 5.62491 15.0823 6.00559 14.9246C6.38627 14.7669 6.71164 14.4999 6.94056 14.1573C7.16948 13.8147 7.29167 13.4119 7.29167 12.9998C7.29167 12.4473 7.07217 11.9174 6.68147 11.5267C6.29077 11.136 5.76087 10.9165 5.20833 10.9165ZM19.7917 10.9165C19.3796 10.9165 18.9768 11.0387 18.6342 11.2676C18.2916 11.4965 18.0246 11.8219 17.8669 12.2026C17.7092 12.5833 17.668 13.0021 17.7484 13.4063C17.8287 13.8104 18.0272 14.1816 18.3185 14.473C18.6099 14.7643 18.9811 14.9628 19.3852 15.0431C19.7894 15.1235 20.2082 15.0823 20.5889 14.9246C20.9696 14.7669 21.295 14.4999 21.5239 14.1573C21.7528 13.8147 21.875 13.4119 21.875 12.9998C21.875 12.4473 21.6555 11.9174 21.2648 11.5267C20.8741 11.136 20.3442 10.9165 19.7917 10.9165Z" fill="#152131"/>
</svg>
