<svg width="25" height="26" viewBox="0 0 25 26" fill="none" xmlns="http://www.w3.org/2000/svg">
<path d="M13.9687 13.0002L20.5312 6.44811C20.7274 6.25196 20.8376 5.98592 20.8376 5.70853C20.8376 5.43113 20.7274 5.16509 20.5312 4.96894C20.3351 4.77279 20.0691 4.6626 19.7917 4.6626C19.5143 4.6626 19.2482 4.77279 19.0521 4.96894L12.5 11.5314L5.9479 4.96894C5.75175 4.77279 5.48572 4.6626 5.20832 4.6626C4.93092 4.6626 4.66489 4.77279 4.46874 4.96894C4.27259 5.16509 4.16239 5.43113 4.16239 5.70853C4.16239 5.98592 4.27259 6.25196 4.46874 6.44811L11.0312 13.0002L4.46874 19.5523C4.3711 19.6491 4.29361 19.7643 4.24073 19.8913C4.18784 20.0182 4.16061 20.1543 4.16061 20.2919C4.16061 20.4294 4.18784 20.5655 4.24073 20.6925C4.29361 20.8194 4.3711 20.9346 4.46874 21.0314C4.56557 21.1291 4.68078 21.2066 4.80772 21.2595C4.93466 21.3123 5.07081 21.3396 5.20832 21.3396C5.34583 21.3396 5.48198 21.3123 5.60892 21.2595C5.73586 21.2066 5.85107 21.1291 5.9479 21.0314L12.5 14.4689L19.0521 21.0314C19.1489 21.1291 19.2641 21.2066 19.3911 21.2595C19.518 21.3123 19.6541 21.3396 19.7917 21.3396C19.9292 21.3396 20.0653 21.3123 20.1923 21.2595C20.3192 21.2066 20.4344 21.1291 20.5312 21.0314C20.6289 20.9346 20.7064 20.8194 20.7593 20.6925C20.8121 20.5655 20.8394 20.4294 20.8394 20.2919C20.8394 20.1543 20.8121 20.0182 20.7593 19.8913C20.7064 19.7643 20.6289 19.6491 20.5312 19.5523L13.9687 13.0002Z" fill="#152131"/>
</svg>
