<svg width="25" height="25" viewBox="0 0 25 25" fill="none" xmlns="http://www.w3.org/2000/svg">
<path d="M20.4479 3.80208C20.3269 3.70419 20.1855 3.63466 20.0341 3.59861C19.8827 3.56255 19.7251 3.56089 19.5729 3.59375C18.4599 3.82702 17.3108 3.82999 16.1965 3.60248C15.0822 3.37497 14.0263 2.92178 13.0938 2.27083C12.9194 2.14987 12.7122 2.08504 12.5 2.08504C12.2878 2.08504 12.0806 2.14987 11.9063 2.27083C10.9737 2.92178 9.91781 3.37497 8.80353 3.60248C7.68925 3.82999 6.5402 3.82702 5.42711 3.59375C5.27496 3.56089 5.11739 3.56255 4.96596 3.59861C4.81454 3.63466 4.67313 3.70419 4.55211 3.80208C4.43125 3.90012 4.3339 4.02399 4.26721 4.1646C4.20051 4.3052 4.16616 4.45896 4.16669 4.61458V12.375C4.16577 13.8685 4.52166 15.3406 5.20475 16.6687C5.88784 17.9968 6.87834 19.1425 8.09378 20.0104L11.8959 22.7187C12.0723 22.8444 12.2835 22.9119 12.5 22.9119C12.7166 22.9119 12.9278 22.8444 13.1042 22.7187L16.9063 20.0104C18.1217 19.1425 19.1122 17.9968 19.7953 16.6687C20.4784 15.3406 20.8343 13.8685 20.8334 12.375V4.61458C20.8339 4.45896 20.7995 4.3052 20.7328 4.1646C20.6661 4.02399 20.5688 3.90012 20.4479 3.80208ZM18.75 12.375C18.7508 13.5362 18.4743 14.6808 17.9434 15.7136C17.4125 16.7463 16.6427 17.6373 15.6979 18.3125L12.5 20.5937L9.30211 18.3125C8.35736 17.6373 7.58751 16.7463 7.05664 15.7136C6.52577 14.6808 6.24923 13.5362 6.25003 12.375V5.8125C8.43381 5.99941 10.6209 5.49273 12.5 4.36458C14.3792 5.49273 16.5662 5.99941 18.75 5.8125V12.375Z" fill="white"/>
</svg>
