<svg width="25" height="26" viewBox="0 0 25 26" fill="none" xmlns="http://www.w3.org/2000/svg">
<rect y="0.5" width="25" height="25" rx="12.5" fill="white"/>
<g clip-path="url(#clip0_10_185)">
<path d="M12.5 5.5C8.79688 5.5 5 6.29687 5 12.0625C5 15.1562 6.07813 17.0781 8.28125 17.9688V19.7031C8.28125 20.0312 8.46875 20.3125 8.75 20.4531C8.84375 20.5 8.98438 20.5 9.07812 20.5C9.26562 20.5 9.5 20.4062 9.64062 20.2656L11.3281 18.5781C11.7031 18.5781 12.0781 18.625 12.5 18.625C16.2031 18.625 20 17.8281 20 12.0625C20 6.29687 16.2031 5.5 12.5 5.5ZM12.2656 10.2812C13.1094 10.2812 13.8125 10.9844 13.8125 11.8281C13.8125 12.1094 13.625 12.2969 13.3438 12.2969C13.0625 12.2969 12.875 12.1094 12.875 11.8281C12.875 11.5 12.5938 11.2188 12.2656 11.2188C11.9844 11.2188 11.7969 11.0312 11.7969 10.75C11.7969 10.4688 11.9844 10.2812 12.2656 10.2812ZM11.7969 9.29688C11.7969 9.01563 11.9844 8.82812 12.2656 8.82812C13.9062 8.82812 15.2656 10.1875 15.2656 11.8281C15.2656 12.1094 15.0781 12.2969 14.7969 12.2969C14.5156 12.2969 14.3281 12.1094 14.3281 11.8281C14.3281 10.7031 13.3906 9.76562 12.2656 9.76562C11.9844 9.76562 11.7969 9.53125 11.7969 9.29688ZM15.6406 15.1094C15.4531 15.6719 14.75 16.1406 14.1406 16.2344C14 16.2812 13.8594 16.2812 13.6719 16.2812C13.2969 16.2812 12.7344 16.1875 11.75 15.7656C10.625 15.2969 9.5 14.3125 8.60938 13.0469V13C8.32812 12.5781 7.8125 11.7812 7.8125 10.9375C7.8125 9.90625 8.32812 9.39062 8.51562 9.15625C8.79688 8.92188 9.125 8.78125 9.5 8.78125C9.59375 8.78125 9.64062 8.78125 9.73438 8.78125C10.0625 8.78125 10.2969 8.875 10.5312 9.34375L10.7188 9.71875C10.8594 10.0938 11.0469 10.5156 11.0938 10.5625C11.2344 10.8438 11.2344 11.0781 11.0938 11.3125C11.0469 11.4531 10.9531 11.5469 10.8594 11.6406C10.8125 11.7344 10.7656 11.7812 10.7188 11.7812C10.6719 11.8281 10.6719 11.8281 10.625 11.875C10.7656 12.1094 11.0469 12.5312 11.4219 12.8594C11.9844 13.375 12.4062 13.5156 12.6406 13.6094C12.7344 13.5156 12.8281 13.3281 12.9688 13.1875L13.0156 13.0938C13.25 12.7656 13.625 12.6719 14 12.8125C14.1875 12.9062 15.2188 13.375 15.2188 13.375L15.3125 13.4219C15.4531 13.5156 15.6406 13.5625 15.7344 13.75C15.875 14.1719 15.7344 14.7812 15.6406 15.1094ZM16.25 12.2969C15.9688 12.2969 15.7812 12.1094 15.7812 11.8281C15.7812 9.90625 14.1875 8.3125 12.2656 8.3125C11.9844 8.3125 11.7969 8.125 11.7969 7.84375C11.7969 7.5625 11.9844 7.375 12.2656 7.375C14.7031 7.375 16.7188 9.39062 16.7188 11.8281C16.7188 12.1094 16.5312 12.2969 16.25 12.2969Z" fill="#152131"/>
</g>
<defs>
<clipPath id="clip0_10_185">
<rect width="15" height="15" fill="white" transform="translate(5 5.5)"/>
</clipPath>
</defs>
</svg>
