<svg width="25" height="25" viewBox="0 0 25 25" fill="none" xmlns="http://www.w3.org/2000/svg">
<g opacity="0.7">
<rect width="25" height="25" rx="12.5" fill="white"/>
<g clip-path="url(#clip0_10_153)">
<path d="M12.5 5C8.79688 5 5 5.79687 5 11.5625C5 14.6562 6.07813 16.5781 8.28125 17.4688V19.2031C8.28125 19.5312 8.46875 19.8125 8.75 19.9531C8.84375 20 8.98438 20 9.07812 20C9.26562 20 9.5 19.9062 9.64062 19.7656L11.3281 18.0781C11.7031 18.0781 12.0781 18.125 12.5 18.125C16.2031 18.125 20 17.3281 20 11.5625C20 5.79687 16.2031 5 12.5 5ZM12.2656 9.78125C13.1094 9.78125 13.8125 10.4844 13.8125 11.3281C13.8125 11.6094 13.625 11.7969 13.3438 11.7969C13.0625 11.7969 12.875 11.6094 12.875 11.3281C12.875 11 12.5938 10.7188 12.2656 10.7188C11.9844 10.7188 11.7969 10.5312 11.7969 10.25C11.7969 9.96875 11.9844 9.78125 12.2656 9.78125ZM11.7969 8.79688C11.7969 8.51563 11.9844 8.32812 12.2656 8.32812C13.9062 8.32812 15.2656 9.6875 15.2656 11.3281C15.2656 11.6094 15.0781 11.7969 14.7969 11.7969C14.5156 11.7969 14.3281 11.6094 14.3281 11.3281C14.3281 10.2031 13.3906 9.26562 12.2656 9.26562C11.9844 9.26562 11.7969 9.03125 11.7969 8.79688ZM15.6406 14.6094C15.4531 15.1719 14.75 15.6406 14.1406 15.7344C14 15.7812 13.8594 15.7812 13.6719 15.7812C13.2969 15.7812 12.7344 15.6875 11.75 15.2656C10.625 14.7969 9.5 13.8125 8.60938 12.5469V12.5C8.32812 12.0781 7.8125 11.2812 7.8125 10.4375C7.8125 9.40625 8.32812 8.89062 8.51562 8.65625C8.79688 8.42188 9.125 8.28125 9.5 8.28125C9.59375 8.28125 9.64062 8.28125 9.73438 8.28125C10.0625 8.28125 10.2969 8.375 10.5312 8.84375L10.7188 9.21875C10.8594 9.59375 11.0469 10.0156 11.0938 10.0625C11.2344 10.3438 11.2344 10.5781 11.0938 10.8125C11.0469 10.9531 10.9531 11.0469 10.8594 11.1406C10.8125 11.2344 10.7656 11.2812 10.7188 11.2812C10.6719 11.3281 10.6719 11.3281 10.625 11.375C10.7656 11.6094 11.0469 12.0312 11.4219 12.3594C11.9844 12.875 12.4062 13.0156 12.6406 13.1094C12.7344 13.0156 12.8281 12.8281 12.9688 12.6875L13.0156 12.5938C13.25 12.2656 13.625 12.1719 14 12.3125C14.1875 12.4062 15.2188 12.875 15.2188 12.875L15.3125 12.9219C15.4531 13.0156 15.6406 13.0625 15.7344 13.25C15.875 13.6719 15.7344 14.2812 15.6406 14.6094ZM16.25 11.7969C15.9688 11.7969 15.7812 11.6094 15.7812 11.3281C15.7812 9.40625 14.1875 7.8125 12.2656 7.8125C11.9844 7.8125 11.7969 7.625 11.7969 7.34375C11.7969 7.0625 11.9844 6.875 12.2656 6.875C14.7031 6.875 16.7188 8.89062 16.7188 11.3281C16.7188 11.6094 16.5312 11.7969 16.25 11.7969Z" fill="#152131"/>
</g>
</g>
<defs>
<clipPath id="clip0_10_153">
<rect width="15" height="15" fill="white" transform="translate(5 5)"/>
</clipPath>
</defs>
</svg>
