<svg width="25" height="25" viewBox="0 0 25 25" fill="none" xmlns="http://www.w3.org/2000/svg">
<g opacity="0.7">
<rect width="25" height="25" rx="12.5" fill="white"/>
<path d="M13.9358 12.3829C13.7014 12.2947 13.7014 11.9582 13.6869 11.7238C13.6283 10.889 13.9213 9.61443 13.5697 9.07256C13.3208 8.75006 12.1194 8.77959 11.3872 8.82365C11.1819 8.85318 10.933 8.89678 10.7572 8.9849C10.5814 9.07303 10.4056 9.21928 10.4056 9.351C10.4056 9.54131 10.8453 9.51225 11.0061 9.76115C11.1819 10.0251 11.1819 10.596 11.1819 11.0647C11.1819 11.6066 11.0938 12.3247 10.8744 12.3538C10.5374 12.3683 10.347 12.0313 10.1713 11.7824C9.81969 11.2991 9.46813 10.6982 9.20423 10.1122C9.07251 9.80475 8.99891 9.46771 8.8086 9.336C8.51563 9.13068 7.98829 9.11615 7.47548 9.13068C7.00673 9.14521 6.33266 9.08662 6.20094 9.36506C6.09829 9.67256 6.31813 9.96553 6.43532 10.2149C7.03579 11.5185 7.68032 12.6613 8.47157 13.7451C9.20423 14.7557 9.89235 15.5615 11.24 15.9862C11.6211 16.1033 13.2908 16.4404 13.6278 15.9862C13.745 15.8104 13.7159 15.4147 13.7745 15.1218C13.8331 14.8288 13.9063 14.5358 14.1847 14.5213C14.4191 14.5068 14.5508 14.7116 14.6975 14.8583C14.8588 15.0196 14.9905 15.1513 15.1077 15.298C15.3861 15.5765 15.6791 15.9571 16.0306 16.1038C16.5139 16.3091 17.2611 16.2505 17.9642 16.221C18.5356 16.2065 18.9458 16.0893 18.9899 15.7522C19.0194 15.4883 18.7259 15.1077 18.5502 14.8879C18.1105 14.346 17.9056 14.1847 17.4074 13.6865C17.1875 13.4666 16.9091 13.2322 16.9091 12.9688C16.8945 12.8076 17.0263 12.6613 17.1434 12.5001C17.6563 11.7383 18.1691 11.1965 18.6378 10.4052C18.7695 10.1708 19.0775 9.62896 18.9603 9.36506C18.8286 9.07209 18.0959 9.15975 17.6417 9.15975C17.0558 9.15975 16.2941 9.11568 16.1474 9.23287C15.8689 9.42318 15.7517 9.73115 15.62 10.0241C15.327 10.6982 14.9314 11.3863 14.5213 11.8991C14.3745 12.0749 14.0966 12.441 13.9353 12.3824L13.9358 12.3829Z" fill="#152131"/>
</g>
</svg>
