<svg width="25" height="26" viewBox="0 0 25 26" fill="none" xmlns="http://www.w3.org/2000/svg">
<rect y="0.5" width="25" height="25" rx="12.5" fill="#E0E0E0"/>
<path d="M13.9358 12.8829C13.7014 12.7947 13.7014 12.4582 13.6869 12.2238C13.6283 11.389 13.9213 10.1144 13.5697 9.57256C13.3208 9.25006 12.1194 9.27959 11.3872 9.32365C11.1819 9.35318 10.933 9.39678 10.7572 9.4849C10.5814 9.57303 10.4056 9.71928 10.4056 9.851C10.4056 10.0413 10.8453 10.0122 11.0061 10.2612C11.1819 10.5251 11.1819 11.096 11.1819 11.5647C11.1819 12.1066 11.0938 12.8247 10.8744 12.8538C10.5374 12.8683 10.347 12.5313 10.1713 12.2824C9.81969 11.7991 9.46813 11.1982 9.20423 10.6122C9.07251 10.3047 8.99891 9.96771 8.8086 9.836C8.51563 9.63068 7.98829 9.61615 7.47548 9.63068C7.00673 9.64521 6.33266 9.58662 6.20094 9.86506C6.09829 10.1726 6.31813 10.4655 6.43532 10.7149C7.03579 12.0185 7.68032 13.1613 8.47157 14.2451C9.20423 15.2557 9.89235 16.0615 11.24 16.4862C11.6211 16.6033 13.2908 16.9404 13.6278 16.4862C13.745 16.3104 13.7159 15.9147 13.7745 15.6218C13.8331 15.3288 13.9063 15.0358 14.1847 15.0213C14.4191 15.0068 14.5508 15.2116 14.6975 15.3583C14.8588 15.5196 14.9905 15.6513 15.1077 15.798C15.3861 16.0765 15.6791 16.4571 16.0306 16.6038C16.5139 16.8091 17.2611 16.7505 17.9642 16.721C18.5356 16.7065 18.9458 16.5893 18.9899 16.2522C19.0194 15.9883 18.7259 15.6077 18.5502 15.3879C18.1105 14.846 17.9056 14.6847 17.4074 14.1865C17.1875 13.9666 16.9091 13.7322 16.9091 13.4688C16.8945 13.3076 17.0263 13.1613 17.1434 13.0001C17.6563 12.2383 18.1691 11.6965 18.6378 10.9052C18.7695 10.6708 19.0775 10.129 18.9603 9.86506C18.8286 9.57209 18.0959 9.65975 17.6417 9.65975C17.0558 9.65975 16.2941 9.61568 16.1474 9.73287C15.8689 9.92318 15.7517 10.2312 15.62 10.5241C15.327 11.1982 14.9314 11.8863 14.5213 12.3991C14.3745 12.5749 14.0966 12.941 13.9353 12.8824L13.9358 12.8829Z" fill="#152131"/>
</svg>
