<svg width="25" height="26" viewBox="0 0 25 26" fill="none" xmlns="http://www.w3.org/2000/svg">
<rect y="0.5" width="25" height="25" rx="12.5" fill="white"/>
<path d="M13.9358 12.8828C13.7014 12.7947 13.7014 12.4581 13.6869 12.2237C13.6283 11.3889 13.9213 10.1144 13.5697 9.5725C13.3208 9.25 12.1194 9.27953 11.3872 9.32359C11.1819 9.35312 10.933 9.39672 10.7572 9.48484C10.5814 9.57297 10.4056 9.71922 10.4056 9.85093C10.4056 10.0412 10.8453 10.0122 11.0061 10.2611C11.1819 10.525 11.1819 11.0959 11.1819 11.5647C11.1819 12.1066 11.0938 12.8247 10.8744 12.8537C10.5374 12.8683 10.347 12.5312 10.1713 12.2823C9.81969 11.7991 9.46813 11.1981 9.20423 10.6122C9.07251 10.3047 8.99891 9.96765 8.8086 9.83593C8.51563 9.63062 7.98829 9.61609 7.47548 9.63062C7.00673 9.64515 6.33266 9.58656 6.20094 9.865C6.09829 10.1725 6.31813 10.4655 6.43532 10.7148C7.03579 12.0184 7.68032 13.1612 8.47157 14.245C9.20423 15.2556 9.89235 16.0614 11.24 16.4861C11.6211 16.6033 13.2908 16.9403 13.6278 16.4861C13.745 16.3103 13.7159 15.9147 13.7745 15.6217C13.8331 15.3287 13.9063 15.0358 14.1847 15.0212C14.4191 15.0067 14.5508 15.2116 14.6975 15.3583C14.8588 15.5195 14.9905 15.6512 15.1077 15.798C15.3861 16.0764 15.6791 16.457 16.0306 16.6037C16.5139 16.8091 17.2611 16.7505 17.9642 16.7209C18.5356 16.7064 18.9458 16.5892 18.9899 16.2522C19.0194 15.9883 18.7259 15.6077 18.5502 15.3878C18.1105 14.8459 17.9056 14.6847 17.4074 14.1864C17.1875 13.9666 16.9091 13.7322 16.9091 13.4687C16.8945 13.3075 17.0263 13.1612 17.1434 13C17.6563 12.2383 18.1691 11.6964 18.6378 10.9052C18.7695 10.6708 19.0775 10.1289 18.9603 9.865C18.8286 9.57203 18.0959 9.65968 17.6417 9.65968C17.0558 9.65968 16.2941 9.61562 16.1474 9.73281C15.8689 9.92312 15.7517 10.2311 15.62 10.5241C15.327 11.1981 14.9314 11.8862 14.5213 12.3991C14.3745 12.5748 14.0966 12.9409 13.9353 12.8823L13.9358 12.8828Z" fill="#152131"/>
</svg>
